<svg width="5483" height="653" viewBox="0 0 5483 653" fill="none" xmlns="http://www.w3.org/2000/svg">
<g clip-path="url(#clip0_37_77)">
<path d="M2574.66 1960.86L2214.37 1926.3C2213.63 1926.3 2213.26 1926.12 2213.26 1925.76C2213.26 1925.76 2213.26 1925.58 2213.26 1925.22L2232.05 1910.64L1907.13 1863.12L1504.84 1718.4C1504.84 1718.4 1504.84 1718.22 1504.84 1717.86L1176.6 1502.94C1176.6 1502.94 1176.6 1502.76 1176.6 1502.4C1177.33 1502.4 1177.7 1502.22 1177.7 1501.86L1259.48 1503.48L1019.66 1293.96C1019.66 1293.96 1019.66 1293.78 1019.66 1293.42L1271.64 873.842L985.397 1024.5C984.66 1024.5 984.292 1024.5 984.292 1024.5C983.555 1024.5 983.187 1024.32 983.187 1023.96L1078.23 813.362L1492.68 486.121L1915.97 340.32L2400.04 255C2400.78 255 2401.15 255 2401.15 255L2970.32 247.44L3402.45 295.5L3699.74 378.661L4035.72 516.901L4316.44 715.082L4411.49 833.342C4411.49 833.702 4411.49 834.062 4411.49 834.422C4410.75 834.422 4410.01 834.242 4409.27 833.882L4316.44 784.202L4315.33 877.082L4461.22 910.022C4461.96 910.022 4462.32 910.022 4462.32 910.022L4504.32 1061.22L4392.7 1290.18L4455.69 1306.92C4456.43 1307.28 4456.43 1307.46 4455.69 1307.46L4277.76 1526.7L3963.88 1727.04C3963.88 1727.04 3963.52 1727.04 3962.78 1727.04L3589.22 1858.8L3180.3 1938.18C3179.57 1938.54 3179.2 1938.54 3179.2 1938.18L3141.62 1904.16L2988 1919.28L2962.58 1958.16C2962.58 1958.52 2962.21 1958.7 2961.48 1958.7L2574.66 1960.86ZM2985.79 1919.82L2585.71 1959.78L2960.37 1957.62L2985.79 1919.82ZM2235.37 1910.1L2573.55 1959.78L2529.35 1817.76L2331.52 1831.8L2235.37 1910.1ZM3010.1 1784.28L2579.08 1959.24L2986.9 1918.74L3051 1821L3010.1 1784.28ZM2531.56 1817.76L2575.77 1959.78L3006.79 1784.28L2531.56 1817.76ZM2216.58 1925.76L2552.56 1957.62L2234.26 1911.18L2216.58 1925.76ZM3143.83 1904.16L3180.3 1937.64L3577.07 1860.96L3143.83 1904.16ZM3051 1822.62L2988 1918.2L3140.52 1903.08L3051 1822.62ZM1911.55 1863.12L2232.05 1910.1L2328.2 1832.34L2185.63 1842.6L1911.55 1863.12ZM3051 1821L3141.62 1903.08L3582.59 1858.8L3069.79 1791.84L3051 1821ZM1833.08 1778.34L1907.13 1862.04L2181.21 1841.52L1833.08 1778.34ZM1512.57 1720.02L1903.81 1861.5L1829.76 1777.8L1512.57 1720.02ZM3072 1791.3L3587.01 1858.26L3475.39 1756.74L3079.73 1779.96L3072 1791.3ZM3643.38 1747.02L3590.33 1857.72L3958.36 1728.12L3643.38 1747.02ZM3477.6 1756.74L3588.12 1857.72L3641.17 1747.02L3477.6 1756.74ZM2096.11 1616.88L2186.74 1841.52L2329.31 1831.8L2490.67 1700.04L2096.11 1616.88ZM1831.97 1777.8L2184.53 1841.52L2093.9 1616.34L1595.46 1511.58L1831.97 1777.8ZM2492.88 1701.66L2332.62 1831.8L2528.24 1817.76L2492.88 1701.66ZM3012.32 1785.36L3052.1 1821L3069.79 1792.92L3012.32 1785.36ZM2495.09 1700.58L2531.56 1817.76L3005.68 1784.28L2495.09 1700.58ZM3015.63 1784.28L3069.79 1791.3L3077.52 1780.5L3015.63 1784.28ZM3230.04 1546.68L3011.21 1783.2L3077.52 1779.42L3230.04 1546.68ZM2496.19 1700.04L3006.79 1783.2L2811.17 1630.92L2496.19 1700.04ZM2813.38 1631.46L3009 1783.74L3234.46 1539.66L2813.38 1631.46ZM3237.77 1539.66L3080.84 1779.96L3474.28 1756.74L3237.77 1539.66ZM1508.15 1718.94L1830.87 1777.26L1595.46 1512.66L1508.15 1718.94ZM3241.09 1539.66L3477.6 1756.2L3643.38 1746.48L3686.48 1656.3L3241.09 1539.66ZM3688.69 1656.84L3645.59 1746.48L3960.57 1727.58L3688.69 1656.84ZM3688.69 1655.76L3962.78 1727.58L3943.99 1532.1L3747.27 1534.26L3688.69 1655.76ZM3945.1 1531.56L3964.99 1725.42L4113.08 1529.94L3945.1 1531.56ZM4114.19 1529.94L3966.09 1724.88L4274.44 1528.32L4114.19 1529.94ZM1263.91 1505.64L1504.84 1716.24L1447.37 1508.88L1263.91 1505.64ZM1450.68 1508.34L1507.05 1715.7L1593.25 1511.04L1450.68 1508.34ZM1182.12 1504.02L1498.21 1711.38L1262.8 1505.1L1182.12 1504.02ZM2097.22 1615.26L2493.98 1698.96L2595.66 1462.98L2046.38 1488.9L2097.22 1615.26ZM2596.76 1463.52L2496.19 1698.96L2811.17 1630.38L2596.76 1463.52ZM3242.19 1538.04L3687.59 1654.14L3745.06 1532.64L3242.19 1538.04ZM2598.97 1462.98L2813.38 1629.84L3234.46 1538.04L2598.97 1462.98ZM1599.88 1510.5L2095.01 1614.72L2044.17 1488.9L1599.88 1510.5ZM3909.73 1190.82L3241.09 1537.5L3746.16 1532.1L3909.73 1190.82ZM2598.97 1461.9L3237.77 1537.5L2946 1106.04L2598.97 1461.9ZM2947.11 1105.5L3238.88 1536.42L3475.39 1151.4L2947.11 1105.5ZM3476.49 1151.94L3241.09 1535.88L3908.62 1189.74L3476.49 1151.94ZM3910.83 1192.98L3748.37 1532.64L3943.99 1530.48L3910.83 1192.98ZM3913.04 1191.36L3946.2 1530.48L4114.19 1528.86L4181.61 1439.22L3913.04 1191.36ZM4183.82 1440.84L4116.4 1528.86L4276.65 1527.24L4183.82 1440.84ZM4184.92 1439.22L4278.86 1525.62L4310.91 1273.98L4184.92 1439.22ZM4313.12 1270.74L4281.07 1520.76L4392.7 1291.8L4313.12 1270.74ZM4393.8 1292.34L4283.28 1520.22L4455.69 1308.54L4393.8 1292.34ZM1450.68 1507.26L1592.15 1509.42L1435.21 1450.56L1450.68 1507.26ZM1922.6 1185.96L1597.67 1509.42L2044.17 1487.82L1922.6 1185.96ZM1435.21 1449.48L1594.36 1509.42L1575.57 1227.54L1381.06 1251.3L1435.21 1449.48ZM1577.78 1227.54L1596.57 1508.34L1921.49 1185.42L1577.78 1227.54ZM1263.91 1505.1L1448.47 1507.8L1433 1450.02L1026.29 1297.2L1263.91 1505.1ZM1924.81 1186.5L2046.38 1488.9L2593.45 1462.44L1924.81 1186.5ZM1925.91 1185.42L2596.76 1461.9L2943.79 1106.04L1925.91 1185.42ZM1025.18 1295.04L1433 1448.94L1379.95 1251.84L1025.18 1295.04ZM3914.15 1190.28L4182.71 1438.14L4309.81 1270.74L3914.15 1190.28ZM1276.06 875.462L1024.08 1293.96L1378.84 1250.76L1276.06 875.462ZM4313.12 1270.2L4392.7 1291.26L4501.01 1067.7L4313.12 1270.2ZM3915.26 1189.2L4310.91 1269.66L4312.02 1104.42L3915.26 1189.2ZM4315.33 1103.34L4314.23 1267.5L4503.22 1063.38L4315.33 1103.34ZM1279.38 873.842L1382.16 1250.22L1576.67 1226.46L1562.31 1010.46L1279.38 873.842ZM1564.52 1011.54L1578.88 1225.92L1922.6 1183.8L1564.52 1011.54ZM3478.71 1150.86L3910.83 1188.12L3603.59 947.822L3478.71 1150.86ZM4201.5 853.862L3914.15 1188.12L4313.12 1102.8L4315.33 879.242L4201.5 853.862ZM3726.27 748.022L3913.04 1187.58L4199.29 853.322L3726.27 748.022ZM3603.59 946.742L3909.73 1186.5L3725.16 749.102L3603.59 946.742ZM2634.34 873.302L1927.02 1184.34L2943.79 1104.96L2634.34 873.302ZM1563.41 1011L1922.6 1183.8L1975.65 842.522L1551.25 829.562L1563.41 1011ZM1977.86 843.062L1924.81 1184.34L2633.24 872.762L2550.35 811.202L1977.86 843.062ZM2949.32 1105.5L3476.49 1151.4L3602.49 947.282L3487.55 857.642L2949.32 1105.5ZM3226.72 654.061L2949.32 1104.42L3486.44 857.642L3226.72 654.061ZM2811.17 796.622L2947.11 1103.88L3224.51 654.061L2811.17 796.622ZM4318.65 880.322L4316.44 1103.34L4505.43 1062.84L4463.43 912.722L4318.65 880.322ZM2637.66 872.762L2944.9 1102.8L2808.96 797.162L2637.66 872.762ZM1084.86 816.062L990.923 1023.96L1278.27 873.302L1307.01 822.542L1084.86 816.062ZM1280.48 873.842L1563.41 1009.92L1551.25 830.102L1339.06 823.622L1280.48 873.842ZM3489.76 857.642L3603.59 946.742L3724.06 749.642L3489.76 857.642ZM4203.71 854.402L4317.54 879.242L4318.65 785.822L4279.97 765.842L4203.71 854.402ZM2554.77 811.742L2636.55 872.762L2806.75 797.162L2554.77 811.742ZM1309.22 824.162L1282.69 870.602L1335.74 824.702L1309.22 824.162ZM3230.04 654.601L3489.76 857.642L3725.16 749.102L3230.04 654.601ZM3731.79 749.642L4202.6 854.942L4278.86 765.842L4203.71 725.342L3731.79 749.642ZM1553.46 830.642L1975.65 843.602L1541.31 651.361L1553.46 830.642ZM2296.15 621.121L1981.17 843.602L2551.45 811.742L2296.15 621.121ZM1543.52 650.821L1977.86 843.062L1953.54 634.621L1543.52 650.821ZM1956.86 634.081L1981.17 842.522L2295.05 620.581L1956.86 634.081ZM4321.97 786.362L4412.59 834.962L4323.07 721.562L4321.97 786.362ZM1340.16 824.702L1551.25 830.642L1539.1 652.441L1340.16 824.702ZM1310.32 823.622L1337.95 824.702L1537.99 652.441L1374.42 712.382L1310.32 823.622ZM1087.07 817.142L1308.11 823.622L1370 713.461L1087.07 817.142ZM1494.89 493.681L1088.18 815.522L1372.21 711.842L1494.89 493.681ZM2299.47 622.201L2553.66 811.742L2807.86 797.162L2299.47 622.201ZM2688.49 635.161L2811.17 797.162L3223.41 654.601L2688.49 635.161ZM2299.47 621.121L2807.86 796.622L2686.28 635.161L2299.47 621.121ZM4282.18 765.842L4318.65 785.822L4319.75 722.102L4282.18 765.842ZM4205.92 725.882L4279.97 765.302L4318.65 719.942L4205.92 725.882ZM3947.31 589.801L3729.58 749.642L4201.5 725.342L3947.31 589.801ZM3228.93 654.061L3725.16 749.102L3642.27 451.561L3228.93 654.061ZM3643.38 452.101L3727.37 748.562L3945.1 589.261L3818 521.761L3643.38 452.101ZM3948.41 588.721L4203.71 724.802L4316.44 719.402L3962.78 578.461L3948.41 588.721ZM3963.88 577.381L4314.23 716.702L4039.04 522.301L3963.88 577.381ZM1497.1 493.141L1373.32 710.761L1537.99 650.821L1497.1 493.141ZM2688.49 633.541L3225.62 653.521L2911.74 349.501L2583.5 494.221L2688.49 633.541ZM2913.95 348.42L3226.72 651.901L3370.4 368.401L2913.95 348.42ZM3371.5 368.401L3228.93 651.901L3640.06 449.941L3522.91 374.881L3371.5 368.401ZM1931.44 453.721L1541.31 649.201L1951.33 633.001L1931.44 453.721ZM1498.21 490.441L1540.2 648.661L1765.66 467.221L1498.21 490.441ZM1768.98 467.221L1545.73 646.501L1929.23 453.181L1768.98 467.221ZM2298.36 619.501L2686.28 633.541L2581.29 494.761L2298.36 619.501ZM1934.76 454.261L1955.75 633.541L2293.94 619.501L1934.76 454.261ZM1934.76 453.181L2295.05 619.501L2376.83 349.501L2065.17 399.721L1934.76 453.181ZM2379.04 348.961L2297.26 618.961L2580.19 494.221L2460.83 336.001L2379.04 348.961ZM3831.26 526.081L3947.31 587.641L3961.67 577.921L3831.26 526.081ZM3821.31 520.141L3962.78 576.841L4037.93 521.761L3715.22 463.981L3821.31 520.141ZM3711.9 461.821L4033.51 519.061L3703.06 383.521L3658.85 433.741L3711.9 461.821ZM3648.9 451.561L3809.16 515.281L3710.79 462.361L3648.9 451.561ZM2463.04 334.92L2582.4 492.601L2910.64 348.42L2656.44 303.6L2463.04 334.92ZM1915.97 346.801L1503.73 488.821L1798.82 440.761L1915.97 346.801ZM1796.61 442.921L1511.47 488.821L1766.77 466.681L1796.61 442.921ZM1799.92 442.381L1770.08 466.681L1931.44 452.641L1927.02 421.861L1799.92 442.381ZM3643.38 450.481L3706.37 461.821L3657.75 435.361L3643.38 450.481ZM1929.23 421.321L1932.54 452.101L2058.54 400.801L1929.23 421.321ZM3525.12 375.961L3641.17 449.401L3654.43 434.281L3546.12 377.041L3525.12 375.961ZM1918.18 346.801L1802.13 440.761L1927.02 420.241L1918.18 346.801ZM3550.54 377.041L3655.54 433.201L3699.74 383.521L3550.54 377.041ZM1921.49 345.72L1930.33 420.241L2064.06 398.641L2398.93 260.94L1921.49 345.72ZM2403.36 261.48L2069.59 398.101L2376.83 348.42L2403.36 261.48ZM3549.44 376.501L3697.53 382.981L3411.29 303.06L3549.44 376.501ZM3525.12 375.421L3546.12 376.501L3423.45 310.62L3525.12 375.421ZM3372.61 368.941L3521.81 375.421L3406.87 302.52L3372.61 368.941ZM2919.48 348.961L3370.4 368.941L3403.55 301.98L2919.48 348.961ZM2659.76 304.14L2911.74 348.42L2972.53 253.38L2659.76 304.14ZM2975.84 253.38L2913.95 348.42L3401.34 300.9L2975.84 253.38ZM2405.57 262.02L2379.04 347.881L2460.83 334.92L2405.57 262.02ZM2406.67 260.94L2461.93 334.92L2652.02 304.14L2406.67 260.94ZM2411.09 260.4L2656.44 303.6L2967 253.38L2411.09 260.4Z" fill="#002F6C" fill-opacity="0.2"/>
<path d="M2290.63 622.201C2284 622.201 2278.47 619.501 2278.47 616.261C2278.47 613.021 2284 609.781 2290.63 609.781C2298.36 609.781 2303.89 613.021 2303.89 616.261C2303.89 619.501 2298.36 622.201 2290.63 622.201Z" fill="#002F6C" fill-opacity="0.2"/>
<path d="M3401.34 302.52C3394.71 302.52 3389.18 299.82 3389.18 296.04C3389.18 292.8 3394.71 290.1 3401.34 290.1C3409.08 290.1 3414.6 292.8 3414.6 296.04C3414.6 299.82 3409.08 302.52 3401.34 302.52Z" fill="#002F6C" fill-opacity="0.2"/>
<path d="M2970.32 254.46C2963.69 254.46 2958.16 251.76 2958.16 247.98C2958.16 244.74 2963.69 242.04 2970.32 242.04C2978.05 242.04 2983.58 244.74 2983.58 247.98C2983.58 251.76 2978.05 254.46 2970.32 254.46Z" fill="#002F6C" fill-opacity="0.2"/>
<path d="M1493.78 492.601C1486.05 492.601 1480.52 489.901 1480.52 486.121C1480.52 482.881 1486.05 480.181 1493.78 480.181C1500.42 480.181 1505.94 482.881 1505.94 486.121C1505.94 489.901 1500.42 492.601 1493.78 492.601Z" fill="#002F6C" fill-opacity="0.2"/>
<path d="M1535.78 652.981C1528.05 652.981 1522.52 649.741 1522.52 646.501C1522.52 643.261 1528.05 640.561 1535.78 640.561C1542.41 640.561 1547.94 643.261 1547.94 646.501C1547.94 649.741 1542.41 652.981 1535.78 652.981Z" fill="#002F6C" fill-opacity="0.2"/>
<path d="M1535.78 652.981C1528.05 652.981 1522.52 649.741 1522.52 646.501C1522.52 643.261 1528.05 640.561 1535.78 640.561C1542.41 640.561 1547.94 643.261 1547.94 646.501C1547.94 649.741 1542.41 652.981 1535.78 652.981Z" fill="#002F6C" fill-opacity="0.2"/>
<path d="M1493.78 492.601C1486.05 492.601 1480.52 489.901 1480.52 486.121C1480.52 482.881 1486.05 480.181 1493.78 480.181C1500.42 480.181 1505.94 482.881 1505.94 486.121C1505.94 489.901 1500.42 492.601 1493.78 492.601Z" fill="#002F6C" fill-opacity="0.2"/>
<path d="M1535.78 652.981C1528.05 652.981 1522.52 649.741 1522.52 646.501C1522.52 643.261 1528.05 640.561 1535.78 640.561C1542.41 640.561 1547.94 643.261 1547.94 646.501C1547.94 649.741 1542.41 652.981 1535.78 652.981Z" fill="#002F6C" fill-opacity="0.2"/>
<path d="M2290.63 622.201C2284 622.201 2278.47 619.501 2278.47 616.261C2278.47 613.021 2284 609.781 2290.63 609.781C2298.36 609.781 2303.89 613.021 2303.89 616.261C2303.89 619.501 2298.36 622.201 2290.63 622.201Z" fill="#002F6C" fill-opacity="0.2"/>
<path d="M1929.23 454.801C1921.49 454.801 1915.97 452.101 1915.97 448.861C1915.97 445.621 1921.49 442.381 1929.23 442.381C1935.86 442.381 1941.39 445.621 1941.39 448.861C1941.39 452.101 1935.86 454.801 1929.23 454.801Z" fill="#002F6C" fill-opacity="0.2"/>
<path d="M1535.78 652.981C1528.05 652.981 1522.52 649.741 1522.52 646.501C1522.52 643.261 1528.05 640.561 1535.78 640.561C1542.41 640.561 1547.94 643.261 1547.94 646.501C1547.94 649.741 1542.41 652.981 1535.78 652.981Z" fill="#002F6C" fill-opacity="0.2"/>
<path d="M1915.97 347.34C1909.34 347.34 1903.81 344.1 1903.81 340.86C1903.81 337.62 1909.34 334.92 1915.97 334.92C1923.7 334.92 1929.23 337.62 1929.23 340.86C1929.23 344.1 1923.7 347.34 1915.97 347.34Z" fill="#002F6C" fill-opacity="0.2"/>
<path d="M1493.78 492.601C1486.05 492.601 1480.52 489.901 1480.52 486.121C1480.52 482.881 1486.05 480.181 1493.78 480.181C1500.42 480.181 1505.94 482.881 1505.94 486.121C1505.94 489.901 1500.42 492.601 1493.78 492.601Z" fill="#002F6C" fill-opacity="0.2"/>
<path d="M1929.23 454.801C1921.49 454.801 1915.97 452.101 1915.97 448.861C1915.97 445.621 1921.49 442.381 1929.23 442.381C1935.86 442.381 1941.39 445.621 1941.39 448.861C1941.39 452.101 1935.86 454.801 1929.23 454.801Z" fill="#002F6C" fill-opacity="0.2"/>
<path d="M1915.97 347.34C1909.34 347.34 1903.81 344.1 1903.81 340.86C1903.81 337.62 1909.34 334.92 1915.97 334.92C1923.7 334.92 1929.23 337.62 1929.23 340.86C1929.23 344.1 1923.7 347.34 1915.97 347.34Z" fill="#002F6C" fill-opacity="0.2"/>
<path d="M2401.15 261.48C2394.51 261.48 2387.88 258.78 2387.88 255.54C2387.88 251.76 2394.51 249.06 2401.15 249.06C2407.78 249.06 2413.3 251.76 2413.3 255.54C2413.3 258.78 2407.78 261.48 2401.15 261.48Z" fill="#002F6C" fill-opacity="0.2"/>
<path d="M1929.23 454.801C1921.49 454.801 1915.97 452.101 1915.97 448.861C1915.97 445.621 1921.49 442.381 1929.23 442.381C1935.86 442.381 1941.39 445.621 1941.39 448.861C1941.39 452.101 1935.86 454.801 1929.23 454.801Z" fill="#002F6C" fill-opacity="0.2"/>
<path d="M2290.63 622.201C2284 622.201 2278.47 619.501 2278.47 616.261C2278.47 613.021 2284 609.781 2290.63 609.781C2298.36 609.781 2303.89 613.021 2303.89 616.261C2303.89 619.501 2298.36 622.201 2290.63 622.201Z" fill="#002F6C" fill-opacity="0.2"/>
<path d="M3223.41 656.221C3215.67 656.221 3210.14 653.521 3210.14 650.281C3210.14 646.501 3215.67 643.801 3223.41 643.801C3230.04 643.801 3235.56 646.501 3235.56 650.281C3235.56 653.521 3230.04 656.221 3223.41 656.221Z" fill="#002F6C" fill-opacity="0.2"/>
<path d="M3223.41 656.221C3215.67 656.221 3210.14 653.521 3210.14 650.281C3210.14 646.501 3215.67 643.801 3223.41 643.801C3230.04 643.801 3235.56 646.501 3235.56 650.281C3235.56 653.521 3230.04 656.221 3223.41 656.221Z" fill="#002F6C" fill-opacity="0.2"/>
<path d="M2290.63 622.201C2284 622.201 2278.47 619.501 2278.47 616.261C2278.47 613.021 2284 609.781 2290.63 609.781C2298.36 609.781 2303.89 613.021 2303.89 616.261C2303.89 619.501 2298.36 622.201 2290.63 622.201Z" fill="#002F6C" fill-opacity="0.2"/>
<path d="M2401.15 261.48C2394.51 261.48 2387.88 258.78 2387.88 255.54C2387.88 251.76 2394.51 249.06 2401.15 249.06C2407.78 249.06 2413.3 251.76 2413.3 255.54C2413.3 258.78 2407.78 261.48 2401.15 261.48Z" fill="#002F6C" fill-opacity="0.2"/>
<path d="M2290.63 622.201C2284 622.201 2278.47 619.501 2278.47 616.261C2278.47 613.021 2284 609.781 2290.63 609.781C2298.36 609.781 2303.89 613.021 2303.89 616.261C2303.89 619.501 2298.36 622.201 2290.63 622.201Z" fill="#002F6C" fill-opacity="0.2"/>
<path d="M2908.43 350.58C2900.69 350.58 2895.16 347.88 2895.16 344.64C2895.16 340.86 2900.69 338.16 2908.43 338.16C2915.06 338.16 2920.58 340.86 2920.58 344.64C2920.58 347.88 2915.06 350.58 2908.43 350.58Z" fill="#002F6C" fill-opacity="0.2"/>
<path d="M2970.32 254.46C2963.69 254.46 2958.16 251.76 2958.16 247.98C2958.16 244.74 2963.69 242.04 2970.32 242.04C2978.05 242.04 2983.58 244.74 2983.58 247.98C2983.58 251.76 2978.05 254.46 2970.32 254.46Z" fill="#002F6C" fill-opacity="0.2"/>
<path d="M2401.15 261.48C2394.51 261.48 2387.88 258.78 2387.88 255.54C2387.88 251.76 2394.51 249.06 2401.15 249.06C2407.78 249.06 2413.3 251.76 2413.3 255.54C2413.3 258.78 2407.78 261.48 2401.15 261.48Z" fill="#002F6C" fill-opacity="0.2"/>
<path d="M2908.43 350.58C2900.69 350.58 2895.16 347.88 2895.16 344.64C2895.16 340.86 2900.69 338.16 2908.43 338.16C2915.06 338.16 2920.58 340.86 2920.58 344.64C2920.58 347.88 2915.06 350.58 2908.43 350.58Z" fill="#002F6C" fill-opacity="0.2"/>
<path d="M3223.41 656.221C3215.67 656.221 3210.14 653.521 3210.14 650.281C3210.14 646.501 3215.67 643.801 3223.41 643.801C3230.04 643.801 3235.56 646.501 3235.56 650.281C3235.56 653.521 3230.04 656.221 3223.41 656.221Z" fill="#002F6C" fill-opacity="0.2"/>
<path d="M3401.34 302.52C3394.71 302.52 3389.18 299.82 3389.18 296.04C3389.18 292.8 3394.71 290.1 3401.34 290.1C3409.08 290.1 3414.6 292.8 3414.6 296.04C3414.6 299.82 3409.08 302.52 3401.34 302.52Z" fill="#002F6C" fill-opacity="0.2"/>
<path d="M2908.43 350.58C2900.69 350.58 2895.16 347.88 2895.16 344.64C2895.16 340.86 2900.69 338.16 2908.43 338.16C2915.06 338.16 2920.58 340.86 2920.58 344.64C2920.58 347.88 2915.06 350.58 2908.43 350.58Z" fill="#002F6C" fill-opacity="0.2"/>
<path d="M3698.64 385.14C3692.01 385.14 3686.48 382.44 3686.48 378.66C3686.48 375.42 3692.01 372.72 3698.64 372.72C3705.27 372.72 3711.9 375.42 3711.9 378.66C3711.9 382.44 3705.27 385.14 3698.64 385.14Z" fill="#002F6C" fill-opacity="0.2"/>
<path d="M3401.34 302.52C3394.71 302.52 3389.18 299.82 3389.18 296.04C3389.18 292.8 3394.71 290.1 3401.34 290.1C3409.08 290.1 3414.6 292.8 3414.6 296.04C3414.6 299.82 3409.08 302.52 3401.34 302.52Z" fill="#002F6C" fill-opacity="0.2"/>
<path d="M3638.96 452.641C3631.22 452.641 3625.7 449.941 3625.7 446.701C3625.7 442.921 3631.22 440.221 3638.96 440.221C3645.59 440.221 3651.11 442.921 3651.11 446.701C3651.11 449.941 3645.59 452.641 3638.96 452.641Z" fill="#002F6C" fill-opacity="0.2"/>
<path d="M3698.64 385.14C3692.01 385.14 3686.48 382.44 3686.48 378.66C3686.48 375.42 3692.01 372.72 3698.64 372.72C3705.27 372.72 3711.9 375.42 3711.9 378.66C3711.9 382.44 3705.27 385.14 3698.64 385.14Z" fill="#002F6C" fill-opacity="0.2"/>
<path d="M4035.72 523.381C4027.98 523.381 4022.46 520.681 4022.46 517.441C4022.46 513.661 4027.98 510.961 4035.72 510.961C4042.35 510.961 4047.88 513.661 4047.88 517.441C4047.88 520.681 4042.35 523.381 4035.72 523.381Z" fill="#002F6C" fill-opacity="0.2"/>
<path d="M3638.96 452.641C3631.22 452.641 3625.7 449.941 3625.7 446.701C3625.7 442.921 3631.22 440.221 3638.96 440.221C3645.59 440.221 3651.11 442.921 3651.11 446.701C3651.11 449.941 3645.59 452.641 3638.96 452.641Z" fill="#002F6C" fill-opacity="0.2"/>
<path d="M3223.41 656.221C3215.67 656.221 3210.14 653.521 3210.14 650.281C3210.14 646.501 3215.67 643.801 3223.41 643.801C3230.04 643.801 3235.56 646.501 3235.56 650.281C3235.56 653.521 3230.04 656.221 3223.41 656.221Z" fill="#002F6C" fill-opacity="0.2"/>
<path d="M3638.96 452.641C3631.22 452.641 3625.7 449.941 3625.7 446.701C3625.7 442.921 3631.22 440.221 3638.96 440.221C3645.59 440.221 3651.11 442.921 3651.11 446.701C3651.11 449.941 3645.59 452.641 3638.96 452.641Z" fill="#002F6C" fill-opacity="0.2"/>
<path d="M4035.72 523.381C4027.98 523.381 4022.46 520.681 4022.46 517.441C4022.46 513.661 4027.98 510.961 4035.72 510.961C4042.35 510.961 4047.88 513.661 4047.88 517.441C4047.88 520.681 4042.35 523.381 4035.72 523.381Z" fill="#002F6C" fill-opacity="0.2"/>
<path d="M2573.55 1995.43L2127.06 1947.9C2126.32 1947.54 2125.95 1947.37 2125.95 1947.37L1433 1737.84C1432.26 1737.84 1431.89 1737.84 1431.89 1737.84C1431.89 1737.84 1431.89 1737.66 1431.89 1737.3L1123.55 1523.46L942.295 1277.76L926.822 989.402C926.822 989.042 926.822 988.862 926.822 988.862L1028.5 770.702L1204.22 620.041L1498.21 449.941C1498.21 449.941 1498.21 449.761 1498.21 449.401L1918.18 307.92C1918.18 307.56 1918.18 307.381 1918.18 307.381L2169.06 259.86C2170.16 259.32 2171.27 259.86 2172.37 259.86C2172.37 260.4 2172.37 260.94 2171.27 261.48L2067.38 307.92L2261.89 308.46L2330.41 234.48C2331.15 234.12 2331.89 233.94 2332.62 233.94L2652.02 212.88C2652.02 212.88 2652.39 212.88 2653.13 212.88L3137.2 269.04L3172.57 237.72C3172.57 237.18 3173.67 236.64 3174.78 237.18L3638.96 327.36C3639.69 327.36 3640.06 327.36 3640.06 327.36L4064.46 486.121C4064.46 486.481 4064.46 486.661 4064.46 486.661C4064.46 486.661 4064.82 486.661 4065.56 486.661L4344.07 675.661C4344.07 676.021 4344.07 676.201 4344.07 676.201L4513.16 883.022C4513.16 883.562 4513.16 884.102 4512.06 884.642L4440.22 903.002L4472.27 980.222L4554.05 993.182C4554.79 993.182 4555.53 993.542 4556.26 994.262L4560.69 1189.74C4560.69 1189.74 4560.69 1189.92 4560.69 1190.28L4486.64 1372.26C4486.64 1372.62 4486.27 1372.8 4485.53 1372.8C4484.8 1373.16 4484.06 1373.16 4483.32 1372.8L4453.48 1364.16L4352.91 1527.78L4045.67 1731.36L3589.22 1897.68C3588.49 1897.68 3587.75 1897.68 3587.01 1897.68C3586.28 1897.32 3585.91 1896.96 3585.91 1896.6L3588.12 1856.1L3146.04 1977.07C3145.31 1977.07 3144.94 1977.07 3144.94 1977.07L2258.58 1850.16L2574.66 1993.81C2576.13 1994.17 2576.5 1994.53 2575.77 1994.89C2575.03 1995.25 2574.29 1995.43 2573.55 1995.43ZM2129.27 1945.74L2565.82 1992.73L2249.73 1848.54L2143.64 1834.5L2129.27 1945.74ZM2260.79 1848L3141.62 1974.37L3051 1796.16L2260.79 1848ZM3054.31 1796.16L3144.94 1973.82L3467.65 1769.16L3054.31 1796.16ZM3474.28 1769.16L3152.67 1972.74L3588.12 1853.94L3594.75 1761.06L3474.28 1769.16ZM1908.23 1802.64L2124.85 1944.12L2138.11 1833.96L1908.23 1802.64ZM1447.37 1740L2117.11 1943.04L1901.6 1801.56L1447.37 1740ZM3592.54 1855.02L3589.22 1894.44L4014.72 1740L3592.54 1855.02ZM3599.17 1760.52L3592.54 1852.32L4032.41 1732.44L3599.17 1760.52ZM2144.74 1817.22L2249.73 1845.84L2535.98 1703.82L2158 1710.3L2144.74 1817.22ZM2542.61 1703.82L2256.37 1845.84L3049.89 1794L2999.05 1696.26L2542.61 1703.82ZM2143.64 1831.8L2233.16 1844.22L2144.74 1819.38L2143.64 1831.8ZM1904.91 1799.4L2139.22 1831.26L2141.43 1818.3L1782.24 1718.94L1904.91 1799.4ZM1781.13 1716.24L2140.32 1816.14L2154.69 1710.3L1781.13 1716.24ZM1444.05 1737.3L1897.18 1798.32L1771.19 1716.78L1444.05 1737.3ZM3004.58 1696.26L3054.31 1794L3472.07 1766.46L3598.07 1687.08L3004.58 1696.26ZM3600.28 1688.7L3478.7 1765.92L3594.75 1757.82L3600.28 1688.7ZM3604.7 1687.08L3600.28 1758.36L4031.3 1729.74L3604.7 1687.08ZM1387.69 1601.76L1435.21 1735.68L1766.77 1715.16L1387.69 1601.76ZM1134.6 1526.16L1427.47 1729.74L1329.11 1583.94L1134.6 1526.16ZM3611.33 1685.46L4044.56 1729.2L4167.24 1567.74L3611.33 1685.46ZM4172.76 1566.12L4053.4 1723.26L4345.17 1529.4L4172.76 1566.12ZM1335.74 1586.1L1428.58 1722.18L1384.37 1600.14L1335.74 1586.1ZM2182.32 1496.46L1780.03 1714.62L2155.79 1708.14L2182.32 1496.46ZM1741.35 1506.72L1776.71 1713L2180.11 1494.84L1741.35 1506.72ZM1360.06 1517.52L1771.19 1713L1736.93 1506.72L1360.06 1517.52ZM1386.58 1599.6L1759.03 1710.3L1357.85 1519.68L1386.58 1599.6ZM2186.74 1495.38L2160.21 1709.22L2542.61 1702.74L2907.32 1521.84L2186.74 1495.38ZM2911.74 1522.92L2548.14 1702.74L2999.05 1695.18L2911.74 1522.92ZM2916.16 1522.92L3004.58 1695.18L3594.75 1685.46L2916.16 1522.92ZM2920.58 1521.3L3601.38 1684.92L3556.07 1460.28L2920.58 1521.3ZM3830.16 1433.82L3609.12 1684.38L4170.55 1565.58L4305.39 1388.46L3830.16 1433.82ZM3560.49 1459.2L3605.8 1681.68L3824.63 1434.36L3560.49 1459.2ZM1333.53 1582.86L1382.16 1597.44L1353.43 1517.52L1290.43 1519.14L1333.53 1582.86ZM1133.49 1523.46L1328.01 1581.24L1286.01 1519.14L1133.49 1523.46ZM4305.39 1390.62L4173.87 1563.42L4348.49 1526.7L4305.39 1390.62ZM4287.7 1315.02L4308.7 1385.76L4351.8 1522.38L4450.17 1362.54L4287.7 1315.02ZM951.136 1282.62L1126.86 1521.84L1283.8 1517.52L1238.49 1450.56L951.136 1282.62ZM2186.74 1492.14L2907.32 1518.6L2248.63 1161.66L2119.32 1202.7L2186.74 1492.14ZM3499.7 1181.64L2918.37 1518.6L3554.96 1457.04L3499.7 1181.64ZM2745.96 1004.52L2913.95 1517.52L3497.49 1179.48L2745.96 1004.52ZM1246.22 1454.88L1288.22 1516.98L1350.11 1515.36L1246.22 1454.88ZM2253.05 1160.58L2909.53 1516.98L2741.54 1004.52L2253.05 1160.58ZM1708.19 1335.54L1361.16 1514.82L1736.93 1504.56L1708.19 1335.54ZM1242.91 1449.48L1355.64 1514.82L1704.88 1333.92L1136.81 1292.88L1242.91 1449.48ZM1712.61 1335.54L1741.35 1504.56L2179 1492.68L1712.61 1335.54ZM1713.72 1333.38L2182.32 1491.6L2116.01 1204.86L1713.72 1333.38ZM3503.02 1181.1L3559.38 1457.58L3824.63 1431.66L4001.46 1231.86L3503.02 1181.1ZM948.926 1279.38L1234.06 1445.7L1131.28 1292.88L948.926 1279.38ZM4003.67 1232.94L3829.05 1431.12L4302.07 1385.76L4281.07 1313.94L4003.67 1232.94ZM4453.48 1362.54L4482.22 1370.64L4546.32 1211.88L4453.48 1362.54ZM4285.49 1313.4L4449.06 1361.46L4554.05 1191.9L4255.65 1214.04L4285.49 1313.4ZM1133.49 1291.26L1701.56 1332.3L1439.63 1190.28L1105.86 1250.22L1133.49 1291.26ZM1444.05 1189.74L1705.98 1331.76L1735.82 1137.36L1444.05 1189.74ZM1740.24 1136.82L1710.4 1330.68L2078.43 1075.8L1740.24 1136.82ZM2083.96 1076.88L1715.93 1330.68L2112.69 1203.78L2083.96 1076.88ZM4010.3 1232.94L4281.07 1312.32L4252.34 1215.12L4010.3 1232.94ZM953.347 1278.3L1130.18 1291.26L1102.55 1251.3L953.347 1278.3ZM1038.45 1155.18L948.926 1277.22L1101.44 1249.68L1038.45 1155.18ZM932.348 998.042L947.821 1272.9L1036.24 1151.94L932.348 998.042ZM1041.76 1151.94L1106.97 1248.6L1439.63 1189.2L1135.7 1023.96L1041.76 1151.94ZM4182.71 975.902L4008.09 1231.32L4253.44 1212.96L4182.71 975.902ZM3507.44 1180.56L4001.46 1231.32L3856.68 1073.1L3507.44 1180.56ZM3861.1 1072.02L4004.78 1229.7L4179.4 973.742L3861.1 1072.02ZM4188.24 975.362L4257.86 1212.96L4556.26 1190.82L4188.24 975.362ZM2090.59 1077.96L2119.32 1203.24L2246.42 1162.74L2090.59 1077.96ZM1139.02 1023.42L1444.05 1189.2L1739.14 1136.28L1780.03 865.742L1139.02 1023.42ZM4189.34 972.122L4557.37 1188.12L4471.17 984.002L4265.6 951.602L4189.34 972.122ZM4476.69 985.082L4559.58 1181.1L4555.16 997.502L4476.69 985.082ZM2751.49 1005.06L3501.91 1180.02L3659.96 858.182L2751.49 1005.06ZM3665.48 860.342L3507.44 1178.94L3857.79 1071.48L3665.48 860.342ZM2093.9 1075.8L2253.05 1161.66L2734.91 1007.76L2093.9 1075.8ZM936.769 993.722L1041.76 1149.78L1134.6 1023.96L936.769 993.722ZM1786.66 867.362L1745.77 1136.28L2086.17 1074.72L1786.66 867.362ZM1791.08 866.282L2091.69 1074.18L2738.23 1005.6L1791.08 866.282ZM3669.9 859.262L3862.21 1070.94L4182.71 972.662L3669.9 859.262ZM936.769 991.022L1134.6 1021.8L1035.13 778.802L936.769 991.022ZM1183.23 792.302L1141.23 1021.26L1780.03 864.122L1183.23 792.302ZM1039.55 775.022L1137.91 1015.86L1178.81 791.762L1039.55 775.022ZM2848.75 738.302L2751.49 1003.98L3659.96 857.102L2848.75 738.302ZM1792.19 864.122L2741.54 1003.44L2221 732.902L1792.19 864.122ZM2224.31 732.362L2747.07 1003.98L2844.33 738.302L2413.3 675.121L2224.31 732.362ZM4273.34 951.062L4473.38 982.382L4441.33 907.322L4273.34 951.062ZM3701.95 864.122L4184.92 970.502L4177.18 938.102L3701.95 864.122ZM4205.92 942.962L4191.55 970.502L4262.28 951.602L4205.92 942.962ZM4181.61 939.182L4188.24 966.722L4201.5 942.422L4181.61 939.182ZM4207.03 940.802L4267.81 950.522L4440.22 905.162L4347.38 683.761L4207.03 940.802ZM4180.5 937.022L4202.6 940.262L4344.07 681.601L4130.77 737.222L4180.5 937.022ZM3671.01 857.102L4176.08 935.942L4127.45 738.302L3671.01 857.102ZM4354.02 690.782L4443.54 903.542L4512.06 885.722L4354.02 690.782ZM1358.95 654.601L1784.45 861.962L1984.49 612.481L1358.95 654.601ZM1183.23 790.142L1778.92 861.962L1354.53 655.141L1196.49 714.542L1183.23 790.142ZM1990.01 613.021L1791.08 860.882L2217.68 731.282L1990.01 613.021ZM2848.75 735.602L3657.75 854.402L2928.32 518.521L2848.75 735.602ZM2933.85 517.981L3664.38 853.862L3653.33 600.061L2933.85 517.981ZM3916.36 630.301L3671.01 853.862L4127.45 734.522L4106.45 651.901L3916.36 630.301ZM3657.75 600.601L3667.69 852.242L3911.94 629.761L3657.75 600.601ZM1041.76 772.322L1178.81 789.062L1193.17 715.622L1041.76 772.322ZM1208.65 627.601L1045.08 767.462L1195.38 699.961L1208.65 627.601ZM1194.28 703.742L1076.02 757.202L1193.17 712.921L1194.28 703.742ZM2417.72 672.421L2844.33 735.062L2922.79 518.521L2417.72 672.421ZM4111.98 652.441L4131.87 733.442L4341.86 678.361L4111.98 652.441ZM1996.65 613.021L2222.1 730.202L2407.78 673.501L1996.65 613.021ZM1199.8 701.582L1198.7 710.762L1351.22 653.521L1321.37 647.041L1199.8 701.582ZM1213.07 624.901L1199.8 698.342L1315.85 646.501L1213.07 624.901ZM4110.87 650.821L4342.96 677.282L4072.19 493.681L4110.87 650.821ZM1997.75 611.401L2412.2 672.421L2915.06 519.061L1997.75 611.401ZM1504.84 564.961L1358.95 652.441L1982.28 610.321L1647.41 501.241L1504.84 564.961ZM1323.59 645.961L1352.32 652.441L1374.42 623.281L1323.59 645.961ZM3918.57 628.681L4105.35 649.741L4066.67 493.141L3918.57 628.681ZM1382.16 619.501L1361.16 647.581L1482.73 574.681L1382.16 619.501ZM1215.28 622.201L1319.16 644.341L1378.84 617.881L1498.21 458.041L1215.28 622.201ZM3657.75 597.901L3915.25 627.061L4065.56 489.901L3654.43 499.621L3657.75 597.901ZM1505.94 453.721L1385.48 614.641L1501.52 562.261L1620.88 490.981L1505.94 453.721ZM2214.37 371.101L1992.23 608.701L2918.37 515.281L2214.37 371.101ZM1650.72 499.081L1985.59 608.161L1934.76 371.641L1650.72 499.081ZM1939.18 370.021L1990.01 606.541L2211.05 370.561L2023.17 332.22L1939.18 370.021ZM2942.69 516.901L3653.33 597.901L3648.9 500.161L2942.69 516.901ZM1624.2 493.141L1524.73 553.081L1644.09 499.621L1624.2 493.141ZM3457.71 379.741L2936.06 514.741L3648.9 498.001L3645.59 413.761L3457.71 379.741ZM2217.68 369.481L2922.79 514.201L2743.75 313.86L2270.73 312.781L2217.68 369.481ZM3099.63 314.94L2931.64 513.661L3452.18 378.661L3099.63 314.94ZM2748.17 313.86L2926.11 513.121L3095.2 314.94L2748.17 313.86ZM3650.01 414.301L3653.33 498.001L4057.82 488.281L3650.01 414.301ZM1627.51 490.981L1647.41 497.461L1935.86 368.941L1923.7 312.781L1627.51 490.981ZM1509.26 452.641L1623.09 489.901L1912.65 315.481L1509.26 452.641ZM3651.11 412.681L4056.72 486.121L3647.8 332.76L3651.11 412.681ZM3463.23 378.661L3646.69 412.141L3642.27 332.22L3463.23 378.661ZM3113.99 315.481L3457.71 378.121L3636.75 331.681L3113.99 315.481ZM2028.7 330.601L2214.37 368.401L2266.31 312.781L2069.59 312.24L2028.7 330.601ZM1929.23 312.24L1940.28 367.321L2020.96 331.141L1929.23 312.24ZM1938.07 311.7L2025.38 329.52L2064.06 312.24L1938.07 311.7ZM3104.05 312.781L3621.27 328.441L3148.25 273.36L3104.05 312.781ZM3149.36 271.74L3616.85 325.741L3182.51 241.5L3149.36 271.74ZM2747.07 311.7L3089.68 312.781L2664.18 218.28L2747.07 311.7ZM2679.65 219.36L3098.52 312.24L3141.62 272.82L2679.65 219.36ZM2271.84 310.62L2741.54 311.7L2656.44 217.2L2339.25 238.26L2271.84 310.62ZM1936.97 309.54L2067.38 310.081L2165.74 265.8L1936.97 309.54Z" fill="#002F6C" fill-opacity="0.2"/>
<path d="M1919.28 321.42C1903.81 321.42 1892.76 316.02 1892.76 308.46C1892.76 301.44 1903.81 295.5 1919.28 295.5C1933.65 295.5 1945.81 301.44 1945.81 308.46C1945.81 316.02 1933.65 321.42 1919.28 321.42Z" fill="#002F6C" fill-opacity="0.2"/>
<path d="M2170.16 270.66C2159.11 270.66 2150.27 266.34 2150.27 260.4C2150.27 255 2159.11 250.68 2170.16 250.68C2181.21 250.68 2190.05 255 2190.05 260.4C2190.05 266.34 2181.21 270.66 2170.16 270.66Z" fill="#002F6C" fill-opacity="0.2"/>
<path d="M2920.58 527.161C2906.22 527.161 2894.06 521.221 2894.06 514.201C2894.06 506.641 2906.22 500.701 2920.58 500.701C2936.06 500.701 2948.21 506.641 2948.21 514.201C2948.21 521.221 2936.06 527.161 2920.58 527.161Z" fill="#002F6C" fill-opacity="0.2"/>
<path d="M3638.96 341.4C3623.49 341.4 3611.33 335.46 3611.33 328.44C3611.33 320.88 3623.49 314.94 3638.96 314.94C3653.33 314.94 3665.48 320.88 3665.48 328.44C3665.48 335.46 3653.33 341.4 3638.96 341.4Z" fill="#002F6C" fill-opacity="0.2"/>
<path d="M4063.35 497.461C4051.19 497.461 4042.35 493.141 4042.35 487.201C4042.35 481.801 4051.19 476.941 4063.35 476.941C4074.4 476.941 4084.35 481.801 4084.35 487.201C4084.35 493.141 4074.4 497.461 4063.35 497.461Z" fill="#002F6C" fill-opacity="0.2"/>
<path d="M3092.99 324.66C3078.63 324.66 3066.47 318.72 3066.47 311.7C3066.47 304.68 3078.63 298.74 3092.99 298.74C3107.36 298.74 3119.52 304.68 3119.52 311.7C3119.52 318.72 3107.36 324.66 3092.99 324.66Z" fill="#002F6C" fill-opacity="0.2"/>
<path d="M3174.78 251.22C3159.31 251.22 3147.15 245.28 3147.15 238.26C3147.15 230.7 3159.31 224.76 3174.78 224.76C3189.15 224.76 3201.3 230.7 3201.3 238.26C3201.3 245.28 3189.15 251.22 3174.78 251.22Z" fill="#002F6C" fill-opacity="0.2"/>
<path d="M3452.18 384.601C3443.34 384.601 3436.71 380.821 3436.71 376.501C3436.71 372.181 3443.34 368.941 3452.18 368.941C3461.02 368.941 3468.76 372.181 3468.76 376.501C3468.76 380.821 3461.02 384.601 3452.18 384.601Z" fill="#002F6C" fill-opacity="0.2"/>
<path d="M3642.27 418.621C3634.54 418.621 3626.8 415.381 3626.8 411.061C3626.8 407.281 3634.54 403.501 3642.27 403.501C3651.11 403.501 3657.75 407.281 3657.75 411.061C3657.75 415.381 3651.11 418.621 3642.27 418.621Z" fill="#002F6C" fill-opacity="0.2"/>
<path d="M3647.8 604.381C3638.96 604.381 3632.33 601.141 3632.33 596.821C3632.33 592.501 3638.96 589.261 3647.8 589.261C3655.54 589.261 3663.27 592.501 3663.27 596.821C3663.27 601.141 3655.54 604.381 3647.8 604.381Z" fill="#002F6C" fill-opacity="0.2"/>
<path d="M3645.59 503.941C3637.85 503.941 3630.12 500.701 3630.12 496.381C3630.12 492.061 3637.85 488.821 3645.59 488.821C3654.43 488.821 3662.17 492.061 3662.17 496.381C3662.17 500.701 3654.43 503.941 3645.59 503.941Z" fill="#002F6C" fill-opacity="0.2"/>
<path d="M3908.62 634.621C3899.78 634.621 3893.15 631.381 3893.15 627.061C3893.15 622.741 3899.78 619.501 3908.62 619.501C3916.36 619.501 3924.1 622.741 3924.1 627.061C3924.1 631.381 3916.36 634.621 3908.62 634.621Z" fill="#002F6C" fill-opacity="0.2"/>
<path d="M4102.03 656.221C4093.19 656.221 4086.56 652.441 4086.56 648.661C4086.56 644.341 4093.19 640.561 4102.03 640.561C4110.87 640.561 4117.5 644.341 4117.5 648.661C4117.5 652.441 4110.87 656.221 4102.03 656.221Z" fill="#002F6C" fill-opacity="0.2"/>
<path d="M1502.63 567.661C1493.78 567.661 1487.15 564.421 1487.15 560.101C1487.15 555.781 1493.78 552.541 1502.63 552.541C1511.47 552.541 1518.1 555.781 1518.1 560.101C1518.1 564.421 1511.47 567.661 1502.63 567.661Z" fill="#002F6C" fill-opacity="0.2"/>
<path d="M1640.77 505.561C1631.93 505.561 1625.3 502.321 1625.3 498.001C1625.3 493.681 1631.93 490.441 1640.77 490.441C1649.62 490.441 1656.25 493.681 1656.25 498.001C1656.25 502.321 1649.62 505.561 1640.77 505.561Z" fill="#002F6C" fill-opacity="0.2"/>
<path d="M1375.53 625.441C1366.69 625.441 1360.06 621.661 1360.06 617.881C1360.06 613.561 1366.69 610.321 1375.53 610.321C1384.37 610.321 1391 613.561 1391 617.881C1391 621.661 1384.37 625.441 1375.53 625.441Z" fill="#002F6C" fill-opacity="0.2"/>
<path d="M2207.74 375.421C2200 375.421 2192.26 372.181 2192.26 367.861C2192.26 363.541 2200 360.301 2207.74 360.301C2216.58 360.301 2223.21 363.541 2223.21 367.861C2223.21 372.181 2216.58 375.421 2207.74 375.421Z" fill="#002F6C" fill-opacity="0.2"/>
<path d="M2263 316.56C2255.26 316.56 2247.52 313.32 2247.52 309C2247.52 304.68 2255.26 301.44 2263 301.44C2271.84 301.44 2278.47 304.68 2278.47 309C2278.47 313.32 2271.84 316.56 2263 316.56Z" fill="#002F6C" fill-opacity="0.2"/>
<path d="M2018.75 338.161C2009.91 338.161 2003.28 334.921 2003.28 330.601C2003.28 326.281 2009.91 323.041 2018.75 323.041C2026.49 323.041 2034.22 326.281 2034.22 330.601C2034.22 334.921 2026.49 338.161 2018.75 338.161Z" fill="#002F6C" fill-opacity="0.2"/>
<path d="M1933.65 375.961C1924.81 375.961 1918.18 372.721 1918.18 368.401C1918.18 364.081 1924.81 360.841 1933.65 360.841C1942.49 360.841 1949.12 364.081 1949.12 368.401C1949.12 372.721 1942.49 375.961 1933.65 375.961Z" fill="#002F6C" fill-opacity="0.2"/>
<path d="M2066.27 315.48C2057.43 315.48 2050.8 312.24 2050.8 307.92C2050.8 304.14 2057.43 300.36 2066.27 300.36C2075.11 300.36 2081.75 304.14 2081.75 307.92C2081.75 312.24 2075.11 315.48 2066.27 315.48Z" fill="#002F6C" fill-opacity="0.2"/>
<path d="M2738.23 317.64C2730.49 317.64 2722.76 313.86 2722.76 310.08C2722.76 305.76 2730.49 302.52 2738.23 302.52C2747.07 302.52 2753.7 305.76 2753.7 310.08C2753.7 313.86 2747.07 317.64 2738.23 317.64Z" fill="#002F6C" fill-opacity="0.2"/>
<path d="M3138.31 277.68C3129.47 277.68 3122.83 274.44 3122.83 270.12C3122.83 266.34 3129.47 262.56 3138.31 262.56C3147.15 262.56 3153.78 266.34 3153.78 270.12C3153.78 274.44 3147.15 277.68 3138.31 277.68Z" fill="#002F6C" fill-opacity="0.2"/>
<path d="M3638.96 341.4C3623.49 341.4 3611.33 335.46 3611.33 328.44C3611.33 320.88 3623.49 314.94 3638.96 314.94C3653.33 314.94 3665.48 320.88 3665.48 328.44C3665.48 335.46 3653.33 341.4 3638.96 341.4Z" fill="#002F6C" fill-opacity="0.2"/>
<path d="M2652.02 226.92C2637.66 226.92 2625.5 220.98 2625.5 213.96C2625.5 206.94 2637.66 201 2652.02 201C2667.5 201 2678.55 206.94 2678.55 213.96C2678.55 220.98 2667.5 226.92 2652.02 226.92Z" fill="#002F6C" fill-opacity="0.2"/>
<path d="M3092.99 324.66C3078.63 324.66 3066.47 318.72 3066.47 311.7C3066.47 304.68 3078.63 298.74 3092.99 298.74C3107.36 298.74 3119.52 304.68 3119.52 311.7C3119.52 318.72 3107.36 324.66 3092.99 324.66Z" fill="#002F6C" fill-opacity="0.2"/>
<path d="M3638.96 347.881C3615.75 347.881 3598.07 339.24 3598.07 328.44C3598.07 317.1 3615.75 308.46 3638.96 308.46C3661.06 308.46 3678.74 317.1 3678.74 328.44C3678.74 339.24 3661.06 347.881 3638.96 347.881Z" fill="#002F6C" fill-opacity="0.2"/>
<path d="M2920.58 527.161C2906.22 527.161 2894.06 521.221 2894.06 514.201C2894.06 506.641 2906.22 500.701 2920.58 500.701C2936.06 500.701 2948.21 506.641 2948.21 514.201C2948.21 521.221 2936.06 527.161 2920.58 527.161Z" fill="#002F6C" fill-opacity="0.2"/>
<path d="M1983.38 621.661C1969.02 621.661 1956.86 615.721 1956.86 608.701C1956.86 601.681 1969.02 595.741 1983.38 595.741C1997.75 595.741 2009.91 601.681 2009.91 608.701C2009.91 615.721 1997.75 621.661 1983.38 621.661Z" fill="#002F6C" fill-opacity="0.2"/>
<path d="M2920.58 527.161C2906.22 527.161 2894.06 521.221 2894.06 514.201C2894.06 506.641 2906.22 500.701 2920.58 500.701C2936.06 500.701 2948.21 506.641 2948.21 514.201C2948.21 521.221 2936.06 527.161 2920.58 527.161Z" fill="#002F6C" fill-opacity="0.2"/>
<path d="M1349 664.321C1334.64 664.321 1322.48 658.381 1322.48 651.361C1322.48 644.341 1334.64 638.401 1349 638.401C1363.37 638.401 1375.53 644.341 1375.53 651.361C1375.53 658.381 1363.37 664.321 1349 664.321Z" fill="#002F6C" fill-opacity="0.2"/>
<path d="M1206.44 631.381C1194.28 631.381 1184.33 626.521 1184.33 620.581C1184.33 615.181 1194.28 610.321 1206.44 610.321C1217.49 610.321 1227.43 615.181 1227.43 620.581C1227.43 626.521 1217.49 631.381 1206.44 631.381Z" fill="#002F6C" fill-opacity="0.2"/>
<path d="M1983.38 621.661C1969.02 621.661 1956.86 615.721 1956.86 608.701C1956.86 601.681 1969.02 595.741 1983.38 595.741C1997.75 595.741 2009.91 601.681 2009.91 608.701C2009.91 615.721 1997.75 621.661 1983.38 621.661Z" fill="#002F6C" fill-opacity="0.2"/>
<path d="M2920.58 527.161C2906.22 527.161 2894.06 521.221 2894.06 514.201C2894.06 506.641 2906.22 500.701 2920.58 500.701C2936.06 500.701 2948.21 506.641 2948.21 514.201C2948.21 521.221 2936.06 527.161 2920.58 527.161Z" fill="#002F6C" fill-opacity="0.2"/>
<path d="M3092.99 329.52C3073.1 329.52 3056.52 321.42 3056.52 311.7C3056.52 301.98 3073.1 293.88 3092.99 293.88C3112.89 293.88 3129.47 301.98 3129.47 311.7C3129.47 321.42 3112.89 329.52 3092.99 329.52Z" fill="#002F6C" fill-opacity="0.2"/>
<path d="M1919.28 321.42C1903.81 321.42 1892.76 316.02 1892.76 308.46C1892.76 301.44 1903.81 295.5 1919.28 295.5C1933.65 295.5 1945.81 301.44 1945.81 308.46C1945.81 316.02 1933.65 321.42 1919.28 321.42Z" fill="#002F6C" fill-opacity="0.2"/>
<path d="M1983.38 621.661C1969.02 621.661 1956.86 615.721 1956.86 608.701C1956.86 601.681 1969.02 595.741 1983.38 595.741C1997.75 595.741 2009.91 601.681 2009.91 608.701C2009.91 615.721 1997.75 621.661 1983.38 621.661Z" fill="#002F6C" fill-opacity="0.2"/>
<path d="M1499.31 459.661C1489.36 459.661 1480.52 455.341 1480.52 450.481C1480.52 445.621 1489.36 441.841 1499.31 441.841C1509.26 441.841 1518.1 445.621 1518.1 450.481C1518.1 455.341 1509.26 459.661 1499.31 459.661Z" fill="#002F6C" fill-opacity="0.2"/>
<path d="M1919.28 321.42C1903.81 321.42 1892.76 316.02 1892.76 308.46C1892.76 301.44 1903.81 295.5 1919.28 295.5C1933.65 295.5 1945.81 301.44 1945.81 308.46C1945.81 316.02 1933.65 321.42 1919.28 321.42Z" fill="#002F6C" fill-opacity="0.2"/>
<path d="M1983.38 621.661C1969.02 621.661 1956.86 615.721 1956.86 608.701C1956.86 601.681 1969.02 595.741 1983.38 595.741C1997.75 595.741 2009.91 601.681 2009.91 608.701C2009.91 615.721 1997.75 621.661 1983.38 621.661Z" fill="#002F6C" fill-opacity="0.2"/>
<path d="M2332.62 247.98C2318.26 247.98 2306.1 242.04 2306.1 235.02C2306.1 228 2318.26 222.06 2332.62 222.06C2346.99 222.06 2359.15 228 2359.15 235.02C2359.15 242.04 2346.99 247.98 2332.62 247.98Z" fill="#002F6C" fill-opacity="0.2"/>
<path d="M2920.58 537.961C2894.06 537.961 2871.96 527.161 2871.96 514.201C2871.96 500.701 2894.06 490.441 2920.58 490.441C2948.21 490.441 2969.21 500.701 2969.21 514.201C2969.21 527.161 2948.21 537.961 2920.58 537.961Z" fill="#002F6C" fill-opacity="0.2"/>
<path d="M2652.02 226.92C2637.66 226.92 2625.5 220.98 2625.5 213.96C2625.5 206.94 2637.66 201 2652.02 201C2667.5 201 2678.55 206.94 2678.55 213.96C2678.55 220.98 2667.5 226.92 2652.02 226.92Z" fill="#002F6C" fill-opacity="0.2"/>
<path d="M1919.28 327.36C1898.28 327.36 1880.6 318.72 1880.6 308.46C1880.6 298.2 1898.28 289.56 1919.28 289.56C1940.28 289.56 1957.96 298.2 1957.96 308.46C1957.96 318.72 1940.28 327.36 1919.28 327.36Z" fill="#002F6C" fill-opacity="0.2"/>
</g>
<defs>
<clipPath id="clip0_37_77">
<rect width="5483" height="653" fill="white"/>
</clipPath>
</defs>
</svg>
