<svg width="880" height="880" viewBox="0 0 880 880" fill="none" xmlns="http://www.w3.org/2000/svg">
<path d="M323.329 27.4563C229.038 49.4587 130.818 114.366 75.8149 190.274C18.4546 269.482 -4.33238 356.391 1.95368 469.703C5.88247 553.862 23.9549 608.868 69.5289 678.725C158.319 815.69 344.544 890.498 504.053 853.644C586.557 834.392 627.417 813.49 698.135 753.533C751.567 708.979 787.712 656.173 812.856 586.866C833.285 530.21 848.215 417.998 834.857 417.998C830.928 417.998 813.642 425.148 795.569 434.499C766.496 449.901 763.353 453.201 758.638 485.105C748.424 556.062 709.921 631.42 657.276 684.226C630.56 711.729 569.271 751.883 537.055 763.434C492.267 778.836 427.834 788.187 394.833 783.786C290.327 770.035 232.966 740.882 161.463 665.524C64.0285 563.213 46.7419 403.696 118.246 269.482C142.604 223.277 205.465 164.971 262.825 134.168C298.184 115.466 311.542 110.515 357.116 102.264C376.76 98.4138 391.69 91.2631 397.976 82.4621C411.333 63.7601 439.621 20.3055 439.621 18.1053C439.621 12.6047 358.688 18.6554 323.329 27.4563Z" fill="#002F6C"/>
<path d="M321.941 466.227V707.002L353.424 657.528C380.184 616.299 384.906 602.556 384.906 571.772C384.906 551.983 387.267 516.801 389.628 493.713L395.138 451.385H451.806H507.688L521.068 422.25C528.151 405.759 534.448 390.916 534.448 389.267C534.448 387.068 502.965 385.419 463.612 385.419H392.777V338.694V292.518L488.798 290.868L584.033 289.219L593.478 269.979C598.987 259.535 605.283 245.242 608.432 238.096L613.941 226.002H468.335H321.941V466.227Z" fill="#002F6C"/>
</svg>
